# xmcd
#
# Track frame offsets:
#	187
#	24450
#	39100
#	51550
#	63087
#	77337
#	88750
#	104975
#	114875
#	130450
#
# Disc length: 1931
#
# Revision: 2
# Processed by: cddbd v1.5.1PL0 Copyright (c) Steve Scherf et al.
# Submitted via: dBpowerAMP V4.0
# Normalized: r0:DSETVAR1,TDELIM( - ),TSWAP
#
DISCID=7d07890a
DTITLE=Various Artist - The Greatest Country Christmas Vol. 2
DYEAR=1993
DGENRE=Christmas
TTITLE0=Reba McEntire - The Christmas Guest
TTITLE1=Oak Ridge Boys - First Christmas Gift
TTITLE2=Oak Ridge Boys - Santa's Song
TTITLE3=Reba McEntire - I'll Open This One Just For You
TTITLE4=George Stait - When It's Christmas Time in Texas
TTITLE5=Oak Ridge Boys - Thank God For Kids
TTITLE6=Reba McEntire - Silent Night
TTITLE7=George Strait - Santa Claus Is Coming To Town
TTITLE8=Oak Ridge Boys - It's Christmas Time Again
TTITLE9=Reba McEntire - A Christmas Letter
EXTD=
EXTT0=
EXTT1=
EXTT2=
EXTT3=
EXTT4=
EXTT5=
EXTT6=
EXTT7=
EXTT8=
EXTT9=
PLAYORDER=
